<?xml version="1.0" encoding="iso-8859-1"?>
<!-- Generator: Adobe Illustrator 19.0.0, SVG Export Plug-In . SVG Version: 6.00 Build 0)  -->
<svg version="1.1" id="Layer_1" xmlns="http://www.w3.org/2000/svg" xmlns:xlink="http://www.w3.org/1999/xlink" x="0px" y="0px"
	 viewBox="0 0 512 512" style="enable-background:new 0 0 512 512;" xml:space="preserve">
<g>
	<g>
		<path d="M492.24,386.448c-31.5-21-58.99-47-81.698-77.292c-19.823-26.417-44.073-48.688-72.073-66.188L294.684,215.6
			l-41.809-41.809c-12.979-12.979-26.365-54.552-10.667-70.25C263.427,82.323,281.75,64,330.667,64c4.948,0,9.25-3.406,10.385-8.219
			c1.135-4.813-1.188-9.781-5.615-11.99C313.354,32.75,290.521,21.333,256,21.333c-45.573,0-88.427,17.75-120.979,50.302
			l-58.688,60.01c-2.583,2.646-3.615,6.427-2.729,10.01c0.729,2.948,1.063,5.385,1.063,7.677c0,17.646-14.354,32-32,32
			c-2.208,0-4.552-0.292-7.156-0.885c-3.583-0.833-7.333,0.271-9.906,2.865L3.125,205.792c-4.167,4.167-4.167,10.917,0,15.083l64,64
			c2.083,2.083,4.813,3.125,7.542,3.125c2.729,0,5.458-1.042,7.542-3.125l22.479-22.479c2.594-2.594,3.667-6.333,2.865-9.906
			c-0.594-2.604-0.885-4.948-0.885-7.156c0-14.01,9.094-26.219,22.094-30.24c25.865-6.542,53.51,3.615,66.365,16.448l41.809,41.809
			l27.368,43.785c17.5,28,39.771,52.25,66.198,72.073c30.281,22.708,56.281,50.198,77.281,81.708
			c8.26,12.365,22.063,19.75,36.927,19.75c11.854,0,22.99-4.615,31.375-13L499,454.75c8.385-8.385,13-19.521,13-31.375
			C512,408.51,504.615,394.708,492.24,386.448z M210.208,216.458c-17.417-17.417-52.813-30.531-87.188-21.906
			c-22.542,6.948-37.688,27.354-37.688,50.781c0,1.938,0.115,3.885,0.365,5.885L74.667,262.25L25.75,213.333l11.031-11.031
			C69.177,206.385,96,180.677,96,149.333c0-2.198-0.167-4.438-0.5-6.771l54.927-56.167C178.625,58.198,216.125,42.667,256,42.667
			c12.969,0,24.031,1.896,34.125,4.917c-30.313,8.188-47.417,25.281-63,40.875c-26.375,26.365-8.844,80.906,10.667,100.417
			L272.917,224l-27.583,27.583L210.208,216.458z M483.917,439.667L461,462.583c-9.813,9.823-27.75,8.042-35.469-3.51
			c-22.344-33.521-50.01-62.771-82.24-86.927c-24.302-18.24-44.792-40.552-60.906-66.323l-23.51-37.615l30.667-30.667l37.615,23.51
			c25.771,16.115,48.083,36.604,66.323,60.906c24.156,32.229,53.406,59.896,86.917,82.24c6.438,4.292,10.271,11.458,10.271,19.177
			C490.667,429.531,488.271,435.313,483.917,439.667z"/>
	</g>
</g>
<g>
</g>
<g>
</g>
<g>
</g>
<g>
</g>
<g>
</g>
<g>
</g>
<g>
</g>
<g>
</g>
<g>
</g>
<g>
</g>
<g>
</g>
<g>
</g>
<g>
</g>
<g>
</g>
<g>
</g>
</svg>
